inDegrees=no
num_controls=7
num_derivatives=13
num_iterations=107
num_multipliers=7
num_parameters=0
num_slacks=7
num_states=26
objective=0.444853
objective_accelerations=0.058130
objective_balance=0.003711
objective_effort=0.023493
objective_height=0.354016
objective_ligament=0.005502
solver_duration=1573.332502
status=Solve_Succeeded
success=true
DataType=double
version=3
OpenSimVersion=4.5
endheader
time	/jointset/ground_pelvis/pelvis_tilt/value	/jointset/ground_pelvis/pelvis_tx/value	/jointset/ground_pelvis/pelvis_ty/value	/jointset/hip_l/hip_flexion_l/value	/jointset/hip_l/hip_adduction_l/value	/jointset/hip_l/hip_rotation_l/value	/jointset/back/lumbar_extension/value	/jointset/patellofemoral_l/patellar_flexion_l/value	/jointset/knee_l/knee_flexion_l/value	/jointset/knee_l/knee_adduction_l/value	/jointset/knee_l/knee_rotation_l/value	/jointset/ankle_l/ankle_angle_l/value	/jointset/subtalar_l/subtalar_angle_l/value	/jointset/ground_pelvis/pelvis_tilt/speed	/jointset/ground_pelvis/pelvis_tx/speed	/jointset/ground_pelvis/pelvis_ty/speed	/jointset/hip_l/hip_flexion_l/speed	/jointset/hip_l/hip_adduction_l/speed	/jointset/hip_l/hip_rotation_l/speed	/jointset/back/lumbar_extension/speed	/jointset/patellofemoral_l/patellar_flexion_l/speed	/jointset/knee_l/knee_flexion_l/speed	/jointset/knee_l/knee_adduction_l/speed	/jointset/knee_l/knee_rotation_l/speed	/jointset/ankle_l/ankle_angle_l/speed	/jointset/subtalar_l/subtalar_angle_l/speed	/forceset/tau_hip_flexion_l	/forceset/tau_hip_adduction_l	/forceset/tau_hip_rotation_l	/forceset/tau_knee_flexion_l	/forceset/tau_ankle_angle_l	/forceset/tau_subtalar_angle_l	/forceset/tau_lumbar_extension	lambda_cid13_p0	lambda_cid13_p1	lambda_cid13_p2	lambda_cid13_p3	lambda_cid13_p4	lambda_cid13_p5	lambda_cid14_p0	/jointset/ground_pelvis/pelvis_tilt/accel	/jointset/ground_pelvis/pelvis_tx/accel	/jointset/ground_pelvis/pelvis_ty/accel	/jointset/hip_l/hip_flexion_l/accel	/jointset/hip_l/hip_adduction_l/accel	/jointset/hip_l/hip_rotation_l/accel	/jointset/back/lumbar_extension/accel	/jointset/patellofemoral_l/patellar_flexion_l/accel	/jointset/knee_l/knee_flexion_l/accel	/jointset/knee_l/knee_adduction_l/accel	/jointset/knee_l/knee_rotation_l/accel	/jointset/ankle_l/ankle_angle_l/accel	/jointset/subtalar_l/subtalar_angle_l/accel	gamma_cid13_p0	gamma_cid13_p1	gamma_cid13_p2	gamma_cid13_p3	gamma_cid13_p4	gamma_cid13_p5	gamma_cid14_p0
0.5	-0.3512226908600758	-0.04529409525210362	0.7567420956487653	1.122167904291224	-0.4371185186171633	-0.2212024474324488	-0.2543662850463412	0.8084320947387659	0.8084320947387604	-0.1291721473091913	-0.1594594473730571	0.09695957782530783	-0.03882039857736084	-0.7982080010781721	-0.2260074144485121	-0.5427788317825809	2.532656931441306	-0.2031615142562894	0.7550400738202023	-0.1146019310272624	1.992677212784045	1.992677212784062	0.1287780455538639	-0.08364238077082116	0.4320134048253568	-0.01324004487229375	-0.1730554903401093	0.01519065330636067	-0.01120803082752814	-0.2205121214437301	0.07662879112664113	0.04670051402960271	0.1698948559340781	-8.213416986962891	-21.95180302938786	6.71374610955682	-8.203456172148808	-522.2711973906438	-64.43914503359184	-25.10727095126983	0.826170586956029	0.6521158835592539	-0.4560108894297381	-1.428060555334345	0.7554885102536564	-0.1964764588706412	1.086736116838501	-1.278190104496152	-1.278190104496155	0.07021853579497322	0.192500558972917	-0.4726382833135042	0.5738310359784534	-5.565558568684652e-07	-4.971554989275281e-07	2.703450942152115e-06	1.320134211050392e-07	-6.238776156368629e-07	1.060908341929204e-07	-4.616798934744892e-07
0.51	-0.3591615302474776	-0.04752131388516438	0.7512927063905372	1.147418191072151	-0.4391134484053357	-0.2136615725793673	-0.2554592413862283	0.8282919307079893	0.8282919307079892	-0.1278844718336703	-0.1602863784319432	0.1012549036881382	-0.038925916231086	-0.7894443361483123	-0.2194190610238846	-0.5469818552274104	2.517057008143277	-0.1958031238332963	0.752965246003951	-0.1040369450269294	1.979027664168857	1.979027664168861	0.1288117429176014	-0.08177973220858857	0.4269803745893145	-0.007866080342978811	-0.1787136999967011	0.01596705962664055	-0.01128172570948192	-0.2231253616262401	0.07618928846455642	0.04704556443566103	0.1741917968916534	-8.562940129172956	-22.02051522541029	6.701918672260004	-8.104710471355999	-525.9638202391479	-64.02265024350835	-24.18888513891502	0.9187297867549065	0.6648094775210907	-0.3849944168983964	-1.677547958206231	0.7289273822525433	-0.2388269694390028	1.034238630115991	-1.447593474464201	-1.447593474466138	-0.02182814867621096	0.1783078552138706	-0.5293415462233565	0.5185527898817848	-5.389096286406494e-07	-4.250655471429879e-07	2.692391126768165e-06	1.44031726366064e-07	-5.952854918670402e-07	1.723271812947186e-07	-4.515291702794101e-07
0.52	-0.3670092799174298	-0.04968212610285756	0.7458047776288831	1.172502160671864	-0.4410342116744921	-0.2061466142097355	-0.256447976108415	0.8480074199441743	0.8480074199441794	-0.1265948140815799	-0.1610956508351338	0.1054977580181133	-0.03897781951382325	-0.7799900575882919	-0.2127261313749933	-0.5504867324677917	2.499393495198486	-0.1883282104530869	0.7498567771302376	-0.0937576074871849	1.963807866176304	1.963807866176295	0.1291745008677646	-0.08011064963173833	0.4215190982543215	-0.002517170674712982	-0.1843719096532928	0.01674346594692055	-0.01135542059143689	-0.2257386018087505	0.07574978580247171	0.04739061484171954	0.1784887378492289	-8.915850836806301	-22.08922700834367	6.690770068875418	-8.039408792319611	-529.7384357660605	-63.6651073890449	-23.27184925244967	0.9642933129881481	0.6730311284120292	-0.3163816485399406	-1.840778484686568	0.7787931016969123	-0.4032046703627838	1.029606424720803	-1.592239979969228	-1.592239979969228	0.1360306530800883	0.1537873618964465	-0.5582875031036536	0.5688200637686326	-5.248123385619032e-07	-3.324211687161516e-07	2.710726688767101e-06	1.649601456178445e-07	-5.752517946157874e-07	2.372414796640003e-07	-4.414927799423448e-07
0.53	-0.3747591954063653	-0.05177555509119674	0.7402853095518577	1.197399409033761	-0.4428798086206923	-0.1986666238012525	-0.2573353545707376	0.8675629479930087	0.8675629479930035	-0.1253008784515527	-0.1618884019262686	0.1096838993512012	-0.03897655016504072	-0.7698824932141872	-0.2059485077439314	-0.5532865061197771	2.479714909913424	-0.1807926609179513	0.7460716894181143	-0.08377815693387702	1.947038670701403	1.947038670701394	0.1295670964205362	-0.07841746820521049	0.4156385203277785	0.002741134745392702	-0.1899444213943287	0.01728556891399008	-0.01136215452666631	-0.2283726398387651	0.07526129452642537	0.0476256337458607	0.1826785797656038	-9.286733053038541	-22.10282047593645	6.66605212940729	-7.876753038532422	-533.4834383850799	-63.25592394377239	-22.35776562241037	1.050502654468009	0.6818369533597828	-0.2438316467105854	-2.082667272390879	0.7403983646218332	-0.3769727802504053	0.9731035771569898	-1.758033020400974	-1.758033020401201	-0.0159117102983248	0.1809500955363002	-0.6135274153140482	0.4995780924335169	-5.097192643297956e-07	-2.33509228305228e-07	2.738597568096323e-06	1.905413556086481e-07	-5.564720483062849e-07	3.04482197985442e-07	-4.305997876770467e-07
0.54	-0.3824047323205904	-0.05380086604864399	0.734741432453676	1.222089617798412	-0.4446501575745013	-0.1912266466616133	-0.258124740686223	0.8869430293492642	0.8869430293492485	-0.1240043740093326	-0.1626634478906371	0.1138091180094467	-0.03892364929979675	-0.7591143426462272	-0.1991025251966086	-0.5553685366990719	2.457985575749371	-0.1732786119748177	0.7418541233614591	-0.07415913811972064	1.928718527660482	1.92871852766047	0.1296882633063467	-0.07656962427846878	0.409334563285858	0.00780913261757763	-0.1955169331353646	0.01782767188105961	-0.01136888846189586	-0.2310066778687797	0.07477280325037904	0.04786065265000189	0.1868684216819788	-9.661407163674241	-22.11636677762099	6.642032777246831	-7.745629929820285	-537.3158031184508	-62.90600116307515	-21.44964621010452	1.096410551759201	0.6867029116641993	-0.1728330340018397	-2.250928260484462	0.7744929832965237	-0.4897003392691763	0.957520076890509	-1.902429493173533	-1.902429493173533	0.08174491968784965	0.1847198619392185	-0.6429633261791955	0.5307585541844811	-4.935244714599266e-07	-1.27662963997016e-07	2.777018160216503e-06	2.212703340766687e-07	-5.390796519748893e-07	3.742968277433158e-07	-4.187590656188103e-07
0.55	-0.3899395807581534	-0.05575746500154884	0.7291803237103465	1.246552747020664	-0.4463454282169027	-0.1838305555514795	-0.2588196859796625	0.9061323122428786	0.9061323122428649	-0.1227081598610096	-0.1634189924151342	0.1178692496365247	-0.03882094633746357	-0.7477600083237125	-0.1922137108585329	-0.5567320104129434	2.434322027042966	-0.165782492242144	0.7373010494573736	-0.0648984063738232	1.908892483860918	1.908892483860919	0.1295021796433748	-0.07451923194000709	0.4026261933164956	0.01269746293068577	-0.2009005365773878	0.01811281307408267	-0.01131520979125995	-0.2337132990571941	0.0742984949166034	0.04799195624850239	0.1908648221816194	-10.02975919085637	-22.08223951013337	6.606142807268874	-7.530108004967845	-541.0474097190523	-62.52540395242583	-20.5522582729673	1.169177829769363	0.6905514800723788	-0.1000302255781667	-2.471883086645094	0.7357728371069705	-0.4479145802454666	0.9000768525931392	-2.059444443470138	-2.059444443468228	-0.07657301924489035	0.218771371143533	-0.6945834889247438	0.4624550524278586	-4.725379699042448e-07	-4.94199826967174e-08	2.769633453636542e-06	2.41018750957666e-07	-5.156265473800346e-07	4.380863511508787e-07	-4.052871731701962e-07
0.5600000000000001	-0.3973580392610371	-0.0576450596540343	0.7236091950927787	1.270769677773668	-0.4479660173882065	-0.17648195591324	-0.2594240785298123	0.9251159841744728	0.9251159841744613	-0.1214153641513074	-0.1641533185259779	0.1218603356325872	-0.03867044311548854	-0.7358363557103454	-0.1853016651127326	-0.5573725115467496	2.408745881899502	-0.1583423177553031	0.7323558289825758	-0.05604858946177452	1.887596335256463	1.887596335256477	0.1290045755821954	-0.07232594154778989	0.3955254370827341	0.01736918454594904	-0.2062841400194096	0.01839795426710575	-0.01126153112062412	-0.2364199202456093	0.07382418658282774	0.04812325984700292	0.1948612226812602	-10.40085344459402	-22.04808262521256	6.570764395638015	-7.351474354294978	-544.8526565318405	-62.19973146356229	-19.66794701880609	1.210274209929657	0.6913491932090965	-0.02823851798882123	-2.633447547895997	0.7633039341299755	-0.5681296534139251	0.8753371101207643	-2.196450454151526	-2.196450454151527	0.01944084004632042	0.2132994726903173	-0.7214405790589946	0.4874368146155036	-4.45801417925588e-07	-4.300941005913657e-09	2.707282388616413e-06	2.475904939342356e-07	-4.849005928690292e-07	4.946457469380687e-07	-3.89857876253129e-07
0.5700000000000001	-0.40465460342198	-0.05946353224235312	0.7180352733798154	1.29472170686115	-0.4495122933215533	-0.1691856187126963	-0.2599420785418031	0.9438795597001439	0.9438795597001411	-0.1201280447381741	-0.1648654990154246	0.1257785313580848	-0.03847403879761143	-0.7233864809326206	-0.1783994963750261	-0.5572899154581289	2.381359739136109	-0.1509131106964835	0.7267542786722007	-0.04763854060208966	1.864888029718946	1.864888029718947	0.1285004735901826	-0.07014139952429983	0.3880522991004984	0.0218887972285674	-0.2115515996013848	0.01863138045612849	-0.01114606378978545	-0.2389975984584071	0.07308314668841438	0.04811287016347469	0.1987043258281361	-10.85498002332576	-21.93053959393226	6.513739943250886	-6.990775006374405	-548.5297618710969	-61.78074161589566	-18.79849412287234	1.275782016738197	0.6887044020206829	0.04470250639874083	-2.836298683207717	0.7323461293876424	-0.5800838556969127	0.8107696240361226	-2.342555401341594	-2.342555401343541	-0.07909265500943206	0.2168875590924038	-0.7694300399599551	0.4304751234737297	-4.15369840139703e-07	6.620117489033062e-08	2.646828468236206e-06	2.589425336943692e-07	-4.527198226569149e-07	5.434335475965782e-07	-3.693154006727693e-07
0.58	-0.4118239812541368	-0.06121317240570102	0.7124658163945612	1.318390854312468	-0.450984353776786	-0.1619500802424259	-0.2603785918951682	0.9624091452108821	0.9624091452108876	-0.1188445177321979	-0.1655566628862535	0.1296201597773293	-0.0382331880272304	-0.7103990899531236	-0.1715351801185531	-0.5564795660050158	2.352169554666847	-0.1434992221324763	0.7201960829279213	-0.03975125773665408	1.840798332269836	1.840798332269824	0.1282460941507957	-0.06812261782424771	0.3802119758320933	0.0262584750467347	-0.2168190591833599	0.01886480664515124	-0.01103059645894688	-0.241575276671205	0.07234210679400102	0.04810248047994649	0.2025474289750121	-11.31153459470097	-21.81246499053982	6.45651101378531	-6.66575591317709	-552.2755839837049	-61.41257221913918	-17.94535208393486	1.317777450284098	0.683778696962364	0.1173121549096923	-2.994255889069672	0.7602402351674956	-0.75945874019477	0.770783911270907	-2.472728836470171	-2.472728836470176	0.06938535057149095	0.1801474080027279	-0.7948776362934357	0.4574498417252894	-3.801261357211491e-07	1.697603176587743e-07	2.588845247852174e-06	2.765200762423998e-07	-4.186444087410312e-07	5.821002011107595e-07	-3.421139017169594e-07
